<?xml version="1.0" encoding="UTF-8" standalone="no"?>
<svg
   xmlns:dc="http://purl.org/dc/elements/1.1/"
   xmlns:cc="http://creativecommons.org/ns#"
   xmlns:rdf="http://www.w3.org/1999/02/22-rdf-syntax-ns#"
   xmlns:svg="http://www.w3.org/2000/svg"
   xmlns="http://www.w3.org/2000/svg"
   xmlns:xlink="http://www.w3.org/1999/xlink"
   xmlns:sodipodi="http://sodipodi.sourceforge.net/DTD/sodipodi-0.dtd"
   xmlns:inkscape="http://www.inkscape.org/namespaces/inkscape"
   id="svg122"
   width="96"
   height="96"
   version="1.1"
   sodipodi:docname="ucaresystem.svg"
   inkscape:version="0.92.5 (2060ec1f9f, 2020-04-08)">
  <sodipodi:namedview
     pagecolor="#ffffff"
     bordercolor="#666666"
     borderopacity="1"
     objecttolerance="10"
     gridtolerance="10"
     guidetolerance="10"
     inkscape:pageopacity="0"
     inkscape:pageshadow="2"
     inkscape:window-width="1507"
     inkscape:window-height="826"
     id="namedview78"
     showgrid="false"
     inkscape:zoom="2.4583333"
     inkscape:cx="48"
     inkscape:cy="48"
     inkscape:window-x="0"
     inkscape:window-y="0"
     inkscape:window-maximized="0"
     inkscape:current-layer="svg122" />
  <metadata
     id="metadata126">
    <rdf:RDF>
      <cc:Work
         rdf:about="">
        <dc:format>image/svg+xml</dc:format>
        <dc:type
           rdf:resource="http://purl.org/dc/dcmitype/StillImage" />
        <dc:title />
      </cc:Work>
    </rdf:RDF>
  </metadata>
  <defs
     id="defs52">
    <linearGradient
       id="c"
       stop-color="#fff">
      <stop
         id="stop2"
         offset="0" />
      <stop
         id="stop4"
         stop-opacity="0"
         offset="1" />
    </linearGradient>
    <filter
       id="g"
       x="-.192"
       y="-.192"
       width="1.384"
       height="1.384"
       color-interpolation-filters="sRGB">
      <feGaussianBlur
         id="feGaussianBlur7"
         stdDeviation="5.28" />
    </filter>
    <linearGradient
       id="r"
       x1="48"
       x2="48"
       y1="20.221"
       y2="138.66"
       gradientUnits="userSpaceOnUse"
       xlink:href="#c" />
    <clipPath
       id="f">
      <rect
         id="rect11"
         x="6"
         y="6"
         width="84"
         height="84"
         rx="6"
         ry="6"
         fill="#fff" />
    </clipPath>
    <clipPath
       id="d">
      <rect
         id="rect14"
         x="6"
         y="6"
         width="84"
         height="84"
         rx="6"
         ry="6"
         fill="url(#h)" />
    </clipPath>
    <linearGradient
       id="h"
       x1="48"
       x2="48"
       y1="90"
       y2="5.9877"
       gradientUnits="userSpaceOnUse">
      <stop
         id="stop17"
         stop-color="#70a83e"
         offset="0" />
      <stop
         id="stop19"
         stop-color="#9fd058"
         offset="1" />
    </linearGradient>
    <linearGradient
       id="b"
       x1="45.448"
       x2="45.448"
       y1="92.54"
       y2="7.0165"
       gradientTransform="translate(100)"
       gradientUnits="userSpaceOnUse">
      <stop
         id="stop22"
         offset="0" />
      <stop
         id="stop24"
         stop-opacity=".58824"
         offset="1" />
    </linearGradient>
    <radialGradient
       id="e"
       cx="48"
       cy="90.172"
       r="42"
       gradientTransform="matrix(1.1573 0 0 .99591 -7.551 .19713)"
       gradientUnits="userSpaceOnUse"
       xlink:href="#c" />
    <linearGradient
       id="n"
       x1="36.357"
       x2="36.357"
       y1="6"
       y2="63.893"
       gradientUnits="userSpaceOnUse"
       xlink:href="#c" />
    <linearGradient
       id="m"
       x1="48"
       x2="48"
       y1="6"
       y2="90"
       gradientUnits="userSpaceOnUse">
      <stop
         id="stop44"
         stop-color="#80a2c8"
         offset="0" />
      <stop
         id="stop46"
         stop-color="#2e4c6d"
         offset="1" />
    </linearGradient>
    <linearGradient
       id="k"
       x1="32.251"
       x2="32.251"
       y1="90"
       y2="6"
       gradientTransform="translate(0,1)"
       gradientUnits="userSpaceOnUse"
       xlink:href="#b" />
    <linearGradient
       id="j"
       x1="32.251"
       x2="32.251"
       y1="90"
       y2="5.9996"
       gradientTransform="matrix(1.0238 0 0 1.0119 -1.1429 .929)"
       gradientUnits="userSpaceOnUse"
       xlink:href="#b" />
    <linearGradient
       id="i"
       x1="32.251"
       x2="32.251"
       y1="6.1317"
       y2="90.239"
       gradientTransform="matrix(1.0238,0,0,-1.0119,-1.1429,98.071)"
       gradientUnits="userSpaceOnUse"
       xlink:href="#b" />
    <linearGradient
       id="linearGradient4219"
       x1="46.811"
       x2="79.899"
       y1="74.62"
       y2="51.805"
       gradientTransform="translate(-6.6071 -2.6247)"
       gradientUnits="userSpaceOnUse">
      <stop
         id="stop4215"
         offset="0" />
      <stop
         id="stop4217"
         stop-opacity="0"
         offset="1" />
    </linearGradient>
    <linearGradient
       id="linearGradient4257"
       x1="60.486"
       x2="110.94"
       y1="169.56"
       y2="159.17"
       gradientTransform="matrix(.29837 0 0 .29685 16.501 6.5847)"
       gradientUnits="userSpaceOnUse">
      <stop
         id="stop4299"
         stop-color="#ffb87d"
         offset="0" />
      <stop
         id="stop4301"
         stop-color="#ffcb8b"
         offset="1" />
    </linearGradient>
    <linearGradient
       id="linearGradient4263"
       x1="163.86"
       x2="106.39"
       y1="21.589"
       y2="167.4"
       gradientTransform="matrix(.29837 0 0 .29685 16.672 7.04)"
       gradientUnits="userSpaceOnUse">
      <stop
         id="stop4234"
         stop-color="#5d5d5d"
         offset="0" />
      <stop
         id="stop4236"
         stop-color="#212121"
         offset="1" />
    </linearGradient>
    <linearGradient
       id="linearGradient4251"
       x1="69.058"
       x2="54.775"
       y1="6.1759"
       y2="56.862"
       gradientTransform="translate(-6.6071 -2.6247)"
       gradientUnits="userSpaceOnUse"
       xlink:href="#c" />
    <linearGradient
       id="linearGradient4199"
       x1="58.473"
       x2="64.341"
       y1="63.783"
       y2="66.585"
       gradientTransform="translate(-6.6071 -2.6247)"
       gradientUnits="userSpaceOnUse">
      <stop
         id="stop4211"
         offset="0" />
      <stop
         id="stop4213"
         stop-color="#fff"
         stop-opacity="0"
         offset="1" />
    </linearGradient>
  </defs>
  <g
     id="g60"
     fill="url(#i)">
    <path
       id="path54"
       d="m12 95.031c-5.5111 0-10.031-4.52-10.031-10.031v-71c0-5.5111 4.5202-10.031 10.031-10.031h72c5.5111 0 10.031 4.5202 10.031 10.031v71c0 5.5111-4.5202 10.031-10.031 10.031h-72z"
       opacity=".08" />
    <path
       id="path56"
       d="m12 94.031c-4.9716 0-9.0312-4.0596-9.0312-9.0312v-71c0-4.9718 4.0596-9.0314 9.0312-9.0314h72c4.9716 0 9.0312 4.0596 9.0312 9.0312v71c0 4.9716-4.0596 9.0312-9.0312 9.0312h-72z"
       opacity=".1" />
    <path
       id="path58"
       d="m12 93c-4.4091 0-8-3.591-8-8v-71c0-4.4091 3.5909-8 8-8h72c4.4091 0 8 3.5909 8 8v71c0 4.4091-3.5909 8-8 8h-72z"
       opacity=".2" />
  </g>
  <rect
     id="rect62"
     x="5"
     y="7"
     width="86"
     height="85"
     rx="7"
     ry="7"
     fill="url(#j)"
     opacity=".3" />
  <rect
     id="rect64"
     x="6"
     y="7"
     width="84"
     height="84"
     rx="6"
     ry="6"
     fill="url(#k)"
     opacity=".45" />
  <rect
     id="rect66"
     x="6"
     y="6"
     width="84"
     height="84"
     rx="6"
     ry="6"
     fill="url(#m)" />
  <path
     id="path68"
     d="m12 6c-3.324 0-6 2.676-6 6v72c0 0.33472 0.04135 0.6507 0.09375 0.96875 0.0487 0.2956 0.09704 0.59692 0.1875 0.875 0.00988 0.03038 0.020892 0.0636 0.03125 0.09375 0.098865 0.28777 0.23488 0.54745 0.375 0.8125 0.14459 0.27351 0.31562 0.53562 0.5 0.78125 0.18438 0.24564 0.37378 0.47347 0.59375 0.6875 0.43995 0.42806 0.94291 0.81453 1.5 1.0938 0.27854 0.13961 0.57347 0.24695 0.875 0.34375-0.2562-0.10022-0.48671-0.23627-0.71875-0.375-0.00741-0.0044-0.023866 0.0045-0.03125 0-0.0319-0.019-0.0622-0.042-0.0937-0.062-0.1204-0.077-0.231-0.164-0.3437-0.25-0.1062-0.081-0.2133-0.161-0.3126-0.25-0.1778-0.162-0.3473-0.346-0.4999-0.531-0.1075-0.131-0.2183-0.266-0.3124-0.407-0.0251-0.038-0.0385-0.086-0.0626-0.125-0.0647-0.103-0.1302-0.204-0.1874-0.312-0.1011-0.195-0.2057-0.416-0.2813-0.625-8e-3 -0.022-0.0236-0.041-0.0313-0.063-0.0318-0.092-0.0358-0.187-0.0624-0.281-0.0304-0.107-0.0704-0.203-0.0938-0.313-0.0729-0.341-0.125-0.698-0.125-1.062v-72c0-2.782 2.2182-5 5-5h72c2.7818 0 5 2.2182 5 5v72c0 0.3643-0.05212 0.72099-0.125 1.0625-0.04415 0.20689-0.08838 0.39766-0.15625 0.59375-0.0077 0.02195-0.0233 0.04069-0.03125 0.0625-0.06274 0.17374-0.13838 0.36745-0.21875 0.53125-0.04158 0.0828-0.07904 0.16995-0.125 0.25-0.0546 0.09721-0.12677 0.18835-0.1875 0.28125-0.09411 0.14096-0.20492 0.276-0.3125 0.40625-0.14317 0.17445-0.30314 0.347-0.46875 0.5-0.01117 0.0102-0.01998 0.02115-0.03125 0.03125-0.13839 0.12556-0.28509 0.23444-0.4375 0.34375-0.10257 0.07315-0.20432 0.15336-0.3125 0.21875-0.0074 0.0045-0.02384-0.0044-0.03125 0-0.23204 0.13873-0.46255 0.27478-0.71875 0.375 0.30153-0.0968 0.59646-0.20414 0.875-0.34375 0.55709-0.27922 1.0601-0.66569 1.5-1.0938 0.21997-0.21403 0.40937-0.44186 0.59375-0.6875s0.35541-0.50774 0.5-0.78125c0.14012-0.26505 0.27614-0.52473 0.375-0.8125 0.01041-0.03078 0.02133-0.06274 0.03125-0.09375 0.09046-0.27808 0.1388-0.5794 0.1875-0.875 0.053-0.318 0.094-0.634 0.094-0.969v-72c0-3.324-2.676-6-6-6h-72z"
     fill="url(#n)"
     opacity=".4" />
  <path
     id="path70"
     d="m12 90c-3.324 0-6-2.676-6-6v-72c0-0.33472 0.04135-0.6507 0.09375-0.96875 0.0487-0.2956 0.09704-0.59692 0.1875-0.875 0.0099-0.03 0.0209-0.063 0.0313-0.094 0.0989-0.2873 0.2349-0.547 0.375-0.812 0.1446-0.2735 0.3156-0.5356 0.5-0.7812 0.1844-0.2457 0.3738-0.4735 0.5937-0.6876 0.44-0.428 0.943-0.8145 1.5-1.0937 0.2786-0.1396 0.5735-0.2469 0.8748-0.3437-0.256 0.1002-0.4865 0.2362-0.7185 0.375-0.00741 0.0044-0.023866-0.0045-0.03125 0-0.031933 0.0193-0.062293 0.04251-0.09375 0.0625-0.1204 0.0767-0.23102 0.16351-0.34375 0.25-0.10617 0.0808-0.21328 0.16111-0.3125 0.25-0.1779 0.1614-0.3474 0.3453-0.5 0.5312-0.1075 0.1303-0.2183 0.2653-0.3124 0.4063-0.0251 0.0383-0.0385 0.0858-0.0626 0.125-0.0647 0.103-0.1302 0.2045-0.1874 0.3124-0.1011 0.1948-0.2057 0.4158-0.2813 0.625-8e-3 0.0219-0.0236 0.0406-0.0313 0.0626-0.0318 0.0919-0.0358 0.1868-0.0624 0.2812-0.0304 0.1066-0.0704 0.203-0.0938 0.3125-0.0729 0.3415-0.125 0.6985-0.125 1.0625v72c0 2.7818 2.2182 5 5 5h72c2.7818 0 5-2.2182 5-5v-72c0-0.364-0.052-0.721-0.125-1.0625-0.044-0.2069-0.088-0.3977-0.156-0.5937-8e-3 -0.022-0.024-0.0407-0.031-0.0626-0.063-0.1737-0.139-0.3674-0.219-0.5312-0.042-0.0828-0.079-0.17-0.125-0.25-0.055-0.0972-0.127-0.1884-0.188-0.2812-0.094-0.141-0.205-0.276-0.312-0.4063-0.143-0.1745-0.303-0.347-0.469-0.5-0.011-0.0102-0.02-0.0211-0.031-0.0313-0.139-0.1255-0.285-0.2344-0.438-0.3437-0.102-0.0731-0.204-0.1534-0.312-0.2187-0.0074-0.0045-0.02384 0.0044-0.03125 0-0.23204-0.13873-0.46255-0.27478-0.71875-0.375 0.30153 0.0968 0.59646 0.20414 0.875 0.34375 0.55709 0.27922 1.0601 0.66569 1.5 1.0938 0.21997 0.21403 0.40937 0.44186 0.59375 0.6875s0.35541 0.50774 0.5 0.78125c0.14012 0.26505 0.27614 0.52473 0.375 0.8125 0.01041 0.03078 0.02133 0.06274 0.03125 0.09375 0.09046 0.27808 0.1388 0.5794 0.1875 0.875 0.053 0.318 0.094 0.634 0.094 0.969v72c0 3.324-2.676 6-6 6h-72z"
     fill="url(#e)"
     opacity=".2" />
  <g
     id="g104"
     clip-path="url(#d)"
     fill="#acf"
     opacity=".9">
    <path
       id="path72"
       d="m48 48 24-56h16l-40 56z"
       opacity=".15" />
    <path
       id="path74"
       d="m48 48 55.25 25.677-0.48 15.993-54.77-41.67z"
       opacity=".15" />
    <path
       id="path76"
       d="m48 48-59.828 11.516-8.969-13.25 68.797 1.734z"
       opacity=".15" />
    <path
       id="path78"
       d="m48 48-49.311-35.783 3.5359-15.604 45.775 51.387z"
       opacity=".15" />
    <path
       id="path80"
       d="m48 48 17.519-62.073 30.436 12.714-47.955 49.359z"
       opacity=".15" />
    <path
       id="path82"
       d="m48 48 61.64-19.001 5.85 32.461-67.49-13.46z"
       opacity=".15" />
    <path
       id="path84"
       d="m48 48-31.246 56.42-26.723-19.331 57.969-37.089z"
       opacity=".15" />
    <path
       id="path86"
       d="m48 48-62.812-14.651 11.304-30.988 51.508 45.639z"
       opacity=".15" />
    <path
       id="path88"
       d="m48 48 45.81 45.403-3.692 9.027-42.118-54.43z"
       opacity=".15" />
    <path
       id="path90"
       d="m48 48-2.9701 64.43-9.1685 3.31 12.137-67.74z"
       opacity=".15" />
    <path
       id="path92"
       d="m48 48-44.859 46.343-9.0649-3.585 53.924-42.758z"
       opacity=".15" />
    <path
       id="path94"
       d="m48 48-62.116 17.366-6.016-7.67 68.132-9.696z"
       opacity=".15" />
    <path
       id="path96"
       d="m48 48-29.147-57.537 6.35-7.396 22.797 64.933z"
       opacity=".15" />
    <path
       id="path98"
       d="m48 48 59.482-24.939 6.921 6.8641-66.4 18.074z"
       opacity=".15" />
    <path
       id="path100"
       d="m48 48 40.187 45.793-6.897 14.437-33.29-60.23z"
       opacity=".15" />
    <path
       id="path102"
       d="m48 48-35.958-49.184 8.152-13.767 27.806 62.951z"
       opacity=".15" />
  </g>
  <rect
     id="rect106"
     x="15"
     y="15"
     width="66"
     height="66"
     rx="12"
     ry="12"
     clip-path="url(#f)"
     fill="url(#r)"
     filter="url(#g)"
     opacity=".1"
     stroke="#fff"
     stroke-linecap="round"
     stroke-width=".5" />
  <path
     inkscape:connector-curvature="0"
     style="fill:#8e0000;stroke-width:3.31289077;fill-opacity:1"
     d="m 60.088838,26.883634 -1.073376,0.450554 c -1.646507,0.689081 -2.620497,1.586874 -3.458658,2.494606 0.76859,0.357792 1.507365,0.814971 2.209698,1.361598 1.566997,1.275463 2.623809,2.653626 3.452032,4.482341 l 1.245647,2.733135 -2.981602,-0.367731 c -2.136814,-0.258405 -3.567983,0.218651 -4.956084,0.679143 -0.566505,0.192148 -1.14626,0.384295 -1.752519,0.516811 0.03975,0.25178 0.06957,0.506872 0.08945,0.758652 0.132515,1.510678 -0.06957,3.044546 -0.593008,4.558538 -0.69902,1.898286 -1.653132,3.342706 -3.114117,4.720869 l -0.983929,0.924296 -1.116444,-0.755339 c -1.659758,-1.129696 -2.835834,-2.405158 -3.813137,-4.1378 -0.652639,-1.219144 -1.073377,-2.464791 -1.252273,-3.743567 -0.682455,0.119264 -1.358285,0.142455 -2.020863,0.168958 -1.457672,0.05632 -2.96835,0.112638 -4.873262,1.113131 l -2.660251,1.401353 0.19546,-2.998166 c 0.129203,-2.000986 0.629449,-3.660745 1.629942,-5.383448 0.606259,-1.000493 1.318531,-1.86847 2.140128,-2.597306 -0.188835,-0.165645 -0.374357,-0.337915 -0.556566,-0.506872 -1.073376,-0.990555 -2.183195,-2.017551 -4.2405,-2.656939 l -2.872276,-0.89448 1.759145,-1.54712 C 20.559426,30.650391 17.38899,39.386484 17.38899,49.19264 c 0,13.735245 12.761255,24.869871 28.504112,24.869871 15.739543,0 28.504111,-11.134626 28.504111,-24.869871 0,-10.124194 -3.654118,-19.741515 -14.308375,-22.309006 z"
     id="path2" />
  <path
     inkscape:connector-curvature="0"
     style="fill:#004500;stroke-width:3.31289077;fill-opacity:1"
     d="m 38.369527,33.80095 c -1.043561,0.725523 -1.938041,1.67301 -2.656939,2.862338 -0.705645,1.212518 -1.275462,2.617183 -1.404665,4.644673 4.21731,-2.216324 6.844432,-0.510186 9.30591,-2.19976 -0.05301,0.530063 -0.06626,1.053499 -0.01988,1.580249 0.08945,1.268837 0.453866,2.517797 1.113132,3.743566 0.689081,1.222457 1.606752,2.425036 3.293013,3.567984 1.477549,-1.394727 2.193134,-2.729822 2.680129,-4.048353 0.457179,-1.311904 0.61951,-2.600619 0.503559,-3.869456 -0.06957,-0.82491 -0.258405,-1.639881 -0.553253,-2.444913 2.666877,0.384295 4.561851,-1.865158 9.054131,-1.311905 -0.841473,-1.851906 -1.871782,-2.965037 -2.95841,-3.849579 C 55.633,31.617755 54.46355,31.051251 53.227842,30.743152 52.972749,30.676894 52.720969,30.630514 52.459251,30.590759 54.01631,29.28548 55.016803,27.14204 58.366135,25.744 c -1.653132,-1.189328 -3.100866,-1.646507 -4.482341,-1.871783 -1.378163,-0.202087 -2.673503,-0.115951 -3.899272,0.231902 -1.22577,0.337915 -2.385282,0.930922 -3.465284,1.808838 -0.414111,0.351167 -0.814971,0.75534 -1.202579,1.199267 -1.487488,-4.807005 -3.24332,-8.643332 -3.402339,-8.98456 l -1.149573,0.533376 c 0.03644,0.08282 1.871783,4.078168 3.389087,9.024314 -0.07951,-0.07288 -0.165645,-0.142454 -0.25178,-0.202086 -1.156199,-0.771904 -2.365404,-1.252273 -3.620989,-1.470924 -1.24896,-0.225276 -2.554239,-0.188835 -3.902586,0.142454 -1.354972,0.361106 -2.749699,0.9508 -4.280254,2.292521 4.058291,1.262211 5.019029,3.833014 7.25523,4.760624 -0.337915,0.182209 -0.669204,0.374356 -0.983928,0.593007 z m 8.43462,-2.448226 c 0.01656,0 0.03313,0.0099 0.04638,0.01325 -0.05963,0.0265 -0.122577,0.05963 -0.182209,0.08945 0.04307,-0.03313 0.08945,-0.06626 0.135829,-0.1027 z"
     id="path4" />
</svg>
